<mxfile host="app.diagrams.net" modified="2023-12-24T14:30:04.137Z" agent="Mozilla/5.0 (Windows NT 10.0; Win64; x64) AppleWebKit/537.36 (KHTML, like Gecko) Chrome/120.0.0.0 Safari/537.36" version="22.1.11" etag="hQC0Qioy7TN8MZXsZL_G" type="github">
  <diagram name="第 1 页" id="LCjejWUBkE6CDh9qkURn">
    <mxGraphModel>
      <root>
        <mxCell id="0" />
        <mxCell id="1" parent="0" />
      </root>
    </mxGraphModel>
  </diagram>
</mxfile>
